<?xml version="1.0" encoding="utf-8"?>
<!-- Generator: Adobe Illustrator 17.0.0, SVG Export Plug-In . SVG Version: 6.00 Build 0)  -->
<!DOCTYPE svg PUBLIC "-//W3C//DTD SVG 1.1//EN" "http://www.w3.org/Graphics/SVG/1.1/DTD/svg11.dtd">
<svg version="1.1" id="Layer_1" xmlns="http://www.w3.org/2000/svg" xmlns:xlink="http://www.w3.org/1999/xlink" x="0px" y="0px"
	 width="572px" height="252px" viewBox="0 0 572 252" enable-background="new 0 0 572 252" xml:space="preserve">
<g>
	<path fill="#FFFFFF" d="M394.5,154c-12.406,0-22.5-10.094-22.5-22.5v-82c0-12.407,10.094-22.5,22.5-22.5h82
		c12.406,0,22.5,10.093,22.5,22.5v82c0,12.406-10.094,22.5-22.5,22.5H394.5z"/>
	<path fill="#494949" d="M476.5,30c11.028,0,19.5,8.472,19.5,19.5v82c0,11.028-8.472,20.5-19.5,20.5h-82
		c-11.028,0-20.5-9.472-20.5-20.5v-82c0-11.028,9.472-19.5,20.5-19.5H476 M476.5,25h-82C380.693,25,369,35.693,369,49.5v82
		c0,13.807,11.693,25.5,25.5,25.5h82c13.807,0,24.5-11.693,24.5-25.5v-82C501,35.693,490.307,25,476.5,25L476.5,25z"/>
</g>
<g>
	<path fill="#FFFFFF" d="M407.5,184c-12.406,0-22.5-10.094-22.5-22.5v-82c0-12.407,10.094-22.5,22.5-22.5h82
		c12.406,0,22.5,10.093,22.5,22.5v82c0,12.406-10.094,22.5-22.5,22.5H407.5z"/>
	<path fill="#999999" d="M489.5,60c11.028,0,19.5,8.472,19.5,19.5v82c0,11.028-8.472,20.5-19.5,20.5h-82
		c-11.028,0-20.5-9.472-20.5-20.5v-82c0-11.028,9.472-19.5,20.5-19.5H489 M489.5,55h-82C393.693,55,382,65.693,382,79.5v82
		c0,13.807,11.693,25.5,25.5,25.5h82c13.807,0,24.5-11.693,24.5-25.5v-82C514,65.693,503.307,55,489.5,55L489.5,55z"/>
</g>
<g>
	<path fill="#FFFFFF" d="M253.629,123c-9.169,0-16.629-7.459-16.629-16.629V43.629C237,34.459,244.459,27,253.629,27h62.742
		C325.54,27,333,34.459,333,43.629v62.742c0,9.169-7.46,16.629-16.629,16.629H253.629z"/>
	<path fill="#494949" d="M316.371,30C324.162,30,330,35.838,330,43.629v62.742c0,7.791-5.838,14.629-13.629,14.629h-62.742
		c-7.791,0-14.629-6.838-14.629-14.629V43.629C239,35.838,245.838,30,253.629,30H316 M316.371,25h-62.742
		C243.064,25,234,33.064,234,43.629v62.742c0,10.565,9.064,19.629,19.629,19.629h62.742c10.565,0,18.629-9.064,18.629-19.629V43.629
		C335,33.064,326.936,25,316.371,25L316.371,25z"/>
</g>
<g>
	<path fill="#FFFFFF" d="M248.038,171C236.989,171,228,162.011,228,150.962V77.038C228,65.989,236.989,57,248.038,57h73.924
		C333.011,57,342,65.989,342,77.038v73.924c0,11.049-8.989,20.038-20.038,20.038H248.038z"/>
	<path fill="#999999" d="M321.962,60C331.633,60,339,67.367,339,77.038v73.924c0,9.67-7.367,18.038-17.038,18.038h-73.924
		c-9.67,0-18.038-8.367-18.038-18.038V77.038C230,67.367,238.367,60,248.038,60H322 M321.962,55h-73.924
		C235.591,55,225,64.591,225,77.038v73.924C225,163.409,235.591,174,248.038,174h73.924C334.409,174,344,163.409,344,150.962V77.038
		C344,64.591,334.409,55,321.962,55L321.962,55z"/>
</g>
<g>
	<path fill="#FFFFFF" d="M95.5,154C83.093,154,73,143.906,73,131.5v-82C73,37.093,83.093,27,95.5,27h82
		c12.407,0,22.5,10.093,22.5,22.5v82c0,12.406-10.093,22.5-22.5,22.5H95.5z"/>
	<path fill="#494949" d="M177.5,30c11.028,0,19.5,8.472,19.5,19.5v82c0,11.028-8.472,20.5-19.5,20.5h-82
		c-11.028,0-20.5-9.472-20.5-20.5v-82C75,38.472,84.472,30,95.5,30H177 M177.5,25h-82C81.693,25,70,35.693,70,49.5v82
		c0,13.807,11.693,25.5,25.5,25.5h82c13.807,0,24.5-11.693,24.5-25.5v-82C202,35.693,191.307,25,177.5,25L177.5,25z"/>
</g>
<g>
	<path fill="#FFFFFF" d="M82.5,184C70.093,184,60,173.906,60,161.5v-82C60,67.093,70.093,57,82.5,57h82
		c12.407,0,22.5,10.093,22.5,22.5v82c0,12.406-10.093,22.5-22.5,22.5H82.5z"/>
	<path fill="#999999" d="M164.5,60c11.028,0,19.5,8.472,19.5,19.5v82c0,11.028-8.472,20.5-19.5,20.5h-82
		c-11.028,0-20.5-9.472-20.5-20.5v-82C62,68.472,71.472,60,82.5,60H164 M164.5,55h-82C68.693,55,57,65.693,57,79.5v82
		c0,13.807,11.693,25.5,25.5,25.5h82c13.807,0,24.5-11.693,24.5-25.5v-82C189,65.693,178.307,55,164.5,55L164.5,55z"/>
</g>
<g>
	<g>
		<path fill="#FFFFFF" d="M69.5,214C57.093,214,47,203.906,47,191.5v-82C47,97.093,57.093,87,69.5,87h82
			c12.407,0,22.5,10.093,22.5,22.5v82c0,12.406-10.093,22.5-22.5,22.5H69.5z"/>
		<path fill="#C9C9C9" d="M151.5,90c11.028,0,19.5,8.472,19.5,19.5v82c0,11.028-8.472,20.5-19.5,20.5h-82
			c-11.028,0-20.5-9.472-20.5-20.5v-82C49,98.472,58.472,90,69.5,90H151 M151.5,85h-82C55.693,85,44,95.693,44,109.5v82
			c0,13.807,11.693,25.5,25.5,25.5h82c13.807,0,24.5-11.693,24.5-25.5v-82C176,95.693,165.307,85,151.5,85L151.5,85z"/>
	</g>
	<g>
		<path d="M90.32,123.646c2.472-3.287,5.921-5.068,9.754-6.167c5.891-1.689,11.811-1.836,17.731-0.059
			c7.677,2.304,11.569,7.374,11.635,15.349c0.059,7.107,0.111,14.216,0.007,21.321c-0.053,3.614,0.976,6.725,3.21,9.529
			c1.798,2.256,1.675,2.875-0.495,4.721c-2.037,1.733-4.047,3.499-6.074,5.243c-1.717,1.477-2.563,1.497-4.189-0.125
			c-1.232-1.229-2.406-2.535-3.465-3.916c-1.44-1.878-1.421-1.961-3.037-0.355c-5.553,5.518-12.326,6.717-19.666,5.304
			c-6.242-1.202-10.511-6.839-10.948-13.421c-0.811-12.223,6.48-19.018,17.67-20.913c3.598-0.61,7.242-0.961,10.873-1.36
			c1.185-0.13,1.943-0.405,1.704-1.828c-0.116-0.691-0.03-1.418-0.019-2.129c0.119-7.491-5.974-8.725-10.607-7.025
			c-2.35,0.862-3.848,2.597-4.504,5.028c-0.612,2.265-1.063,2.534-3.357,2.243c-2.597-0.33-5.202-0.606-7.808-0.862
			c-1.952-0.192-2.655-1.057-2.176-2.941c0.714-2.811,1.683-5.511,3.775-7.648c0.182,0.285,0.364,0.571,0.545,0.856
			c0.1-0.099,0.199-0.199,0.299-0.298C90.891,124.009,90.606,123.827,90.32,123.646z M115.01,150.83
			c0-1.146-0.048-2.023,0.013-2.893c0.064-0.917-0.173-1.248-1.182-1.093c-1.664,0.257-3.365,0.273-5.032,0.517
			c-5.629,0.825-8.647,4.016-9.023,9.449c-0.28,4.046,1.783,7.094,5.211,7.695c2.919,0.512,5.969-1.135,7.853-4.207
			C114.691,157.295,115.083,153.98,115.01,150.83z M107.669,166.186c0.538-0.137,0.961-0.244,1.383-0.351
			c-0.573-0.104-1.144-0.229-1.721-0.294c-0.112-0.012-0.249,0.212-0.375,0.327C107.21,165.981,107.466,166.095,107.669,166.186z
			 M118.089,166.943c0.477,0.238,0.644,0.393,0.797,0.38c0.248-0.021,0.487-0.151,0.73-0.236c-0.105-0.126-0.209-0.356-0.315-0.358
			C119.015,166.726,118.729,166.82,118.089,166.943z M114.748,128.218c-0.154-0.117-0.313-0.251-0.321-0.242
			c-0.201,0.213-0.387,0.442-0.575,0.668c0.118,0.057,0.298,0.193,0.344,0.158C114.384,128.653,114.534,128.453,114.748,128.218z
			 M104.338,118.012c-0.234-0.105-0.358-0.213-0.451-0.19c-0.184,0.044-0.35,0.161-0.524,0.247c0.095,0.092,0.206,0.272,0.28,0.258
			C103.838,118.288,104.017,118.166,104.338,118.012z M131.111,163.15c-0.064,0.284-0.15,0.466-0.128,0.634
			c0.018,0.135,0.167,0.252,0.258,0.377c0.105-0.216,0.236-0.426,0.297-0.654C131.553,163.451,131.337,163.333,131.111,163.15z
			 M88.01,132.837c-0.058,0.239-0.154,0.405-0.107,0.499c0.082,0.167,0.238,0.311,0.395,0.419c0.035,0.024,0.199-0.139,0.304-0.216
			C88.48,133.394,88.358,133.249,88.01,132.837z M126.803,126.747c0.124-0.052,0.286-0.096,0.283-0.122
			c-0.017-0.147-0.073-0.289-0.115-0.432c-0.116,0.052-0.232,0.103-0.348,0.155C126.683,126.481,126.743,126.615,126.803,126.747z
			 M88.826,150.918c-0.129-0.174-0.246-0.332-0.363-0.489c-0.046,0.081-0.143,0.173-0.128,0.24c0.046,0.205,0.135,0.401,0.208,0.6
			C88.621,151.172,88.698,151.076,88.826,150.918z M128.709,157.48c0.044-0.494,0.089-0.699,0.071-0.9
			c-0.011-0.132-0.112-0.256-0.172-0.384c-0.045,0.201-0.118,0.401-0.126,0.603C128.476,156.93,128.565,157.065,128.709,157.48z
			 M95.335,172.374c-0.398-0.205-0.569-0.317-0.757-0.38c-0.077-0.025-0.189,0.056-0.285,0.089c0.145,0.128,0.274,0.284,0.44,0.372
			C94.819,172.502,94.968,172.43,95.335,172.374z"/>
		<path fill="#FD9800" d="M91.331,184.56c-1.199-0.455-2.397-0.91-3.596-1.365c0.011-0.137,0.022-0.274,0.034-0.41
			c0.219-0.001,0.438-0.001,0.656-0.002c0-0.328,0-0.656-0.001-0.983c0.328-0.219,0.656-0.438,0.985-0.656
			c0.27,0.042,0.539,0.084,0.809,0.127c-0.16-0.152-0.32-0.303-0.481-0.455c0.019-0.338,0.038-0.676,0.056-1.014
			c2.611,0.438,5.222,0.876,7.832,1.313c-0.164,0.257-0.327,0.514-0.491,0.771c0.271-0.024,0.544-0.036,0.813-0.076
			c0.782-0.114,1.563-0.239,2.344-0.359c5.533-0.223,11.066-0.445,16.6-0.668c1.015-0.215,2.03-0.429,3.044-0.644
			c5.248-1.857,10.496-3.714,15.743-5.571c0.33,0.09,0.66,0.179,0.991,0.269c-0.11-0.191-0.22-0.382-0.33-0.573
			c1.623-0.945,3.214-1.956,4.89-2.796c0.488-0.245,1.22-0.005,1.839,0.013c-0.091,0.579-0.056,1.223-0.31,1.719
			c-0.224,0.436-0.771,0.706-1.176,1.049c-1.309,0.439-2.618,0.877-3.927,1.316c-0.151-0.114-0.303-0.227-0.454-0.341
			c-0.09,0.169-0.181,0.339-0.271,0.508c0.242-0.056,0.483-0.111,0.725-0.167c0.44,0.332,0.879,0.665,1.319,0.997
			c-3.21,1.963-6.42,3.926-9.63,5.889c-0.396-0.607-1.858,1.346-1.66-0.691c-0.246,0.073-0.677,0.104-0.707,0.228
			c-0.114,0.483-0.099,0.996-0.133,1.498c-7.95,3.408-16.228,4.565-24.803,3.539c-1.708-0.204-3.389-0.64-5.083-0.97
			c-1.15-1.034-2.545-1.055-3.968-0.962c-0.425-0.123-0.85-0.246-1.276-0.369c-0.005-0.27-0.01-0.54-0.016-0.81
			C91.577,184.129,91.454,184.345,91.331,184.56z M132.405,179.174c-0.123,0.294-0.247,0.588-0.37,0.883
			c0.342-0.185,0.685-0.37,1.027-0.555c0.284-0.33,0.567-0.66,0.851-0.989c-0.303,0.089-0.603,0.227-0.911,0.25
			c-0.253,0.019-0.518-0.147-0.775-0.138c-0.213,0.007-0.422,0.15-0.633,0.232C131.864,178.963,132.134,179.069,132.405,179.174z
			 M115.995,181.799c0.592-0.106,1.183-0.212,1.775-0.317c-0.538-0.003-1.076-0.006-1.614-0.009c-0.054,0-0.107,0-0.161,0.001
			c-0.642,0.104-1.285,0.199-1.925,0.316c-0.8,0.146-1.596,0.311-2.394,0.467c0.783-0.043,1.566-0.085,2.349-0.128
			c-0.109,0.218-0.219,0.437-0.328,0.655c-0.415,0.049-0.83,0.098-1.245,0.147c0.38,0.06,0.766,0.194,1.14,0.166
			c0.804-0.06,1.603-0.204,2.403-0.313c0.646-0.192,1.292-0.385,1.939-0.577c-0.648-0.026-1.296-0.057-1.944-0.078
			c-0.326-0.01-0.654-0.002-0.98-0.002C115.338,182.018,115.666,181.908,115.995,181.799z M100.941,186.07
			c0.3-0.225,0.507-0.381,0.715-0.537c-0.356-0.199-0.7-0.426-1.074-0.58c-0.116-0.047-0.314,0.106-0.474,0.168
			C100.374,185.426,100.642,185.73,100.941,186.07z M129.77,178.057c-0.711,0-0.893-0.051-1.019,0.01
			c-0.324,0.158-0.624,0.366-0.934,0.553c0.206,0.072,0.442,0.243,0.613,0.193C128.739,178.723,129.01,178.501,129.77,178.057z
			 M139.405,173.479c-0.122,0.262-0.289,0.522-0.251,0.556c0.192,0.174,0.428,0.313,0.671,0.403c0.044,0.016,0.301-0.35,0.277-0.377
			C139.936,173.874,139.721,173.73,139.405,173.479z M125.424,183.241c0.208-0.184,0.338-0.299,0.468-0.414
			c-0.165-0.108-0.319-0.262-0.5-0.307c-0.1-0.025-0.246,0.132-0.37,0.207C125.134,182.87,125.245,183.013,125.424,183.241z"/>
		<path fill="#FD9903" d="M147.854,175.951c-0.226,0.418-0.452,0.835-0.678,1.253c-0.454-0.553-0.908-1.105-1.362-1.658
			c-0.039-0.114-0.021-0.217,0.054-0.311c0.101-0.565,0.201-1.129,0.302-1.694c0.045-0.861,0.113-1.722,0.132-2.584
			c0.057-2.684-0.274-3.036-2.97-3.238c-0.577,0.087-1.154,0.174-1.73,0.262c-0.308,0.02-0.616,0.039-0.924,0.059
			c-0.909,0.027-1.97-0.232-2.689,0.151c-0.977,0.519-1.078-0.022-1.361-0.595c0.432-0.306,0.863-0.611,1.295-0.917
			c0.477,0.096,0.955,0.191,1.432,0.287c-0.128-0.304-0.255-0.608-0.383-0.912l0.006-0.002c0.978-0.344,1.956-0.688,2.933-1.031
			c2.332-0.39,4.686-1.235,6.926,0.328c0.11,1.784,0.22,3.568,0.33,5.352c-0.335,1.403-0.67,2.806-1.005,4.209
			C148.059,175.255,147.957,175.603,147.854,175.951z M147.632,170.07c0.122-0.55,0.212-0.725,0.184-0.878
			c-0.054-0.297-0.174-0.583-0.266-0.873c-0.121,0.11-0.357,0.239-0.342,0.327C147.263,168.991,147.398,169.324,147.632,170.07z
			 M149.15,166.956c-0.357-0.151-0.549-0.287-0.742-0.287c-0.075,0-0.2,0.301-0.209,0.47c-0.007,0.121,0.141,0.251,0.22,0.377
			C148.557,167.41,148.695,167.304,149.15,166.956z M147.045,170.471c-0.096,0.25-0.2,0.384-0.173,0.483
			c0.048,0.18,0.173,0.34,0.267,0.509c0.083-0.104,0.248-0.224,0.231-0.308C147.33,170.961,147.202,170.784,147.045,170.471z"/>
		<path fill="#FC9904" d="M89.794,179.801c-0.019,0.338-0.037,0.676-0.056,1.014c-0.109,0.109-0.219,0.219-0.328,0.328
			c-0.328,0.219-0.656,0.438-0.985,0.656c-0.238,0.1-0.477,0.199-0.715,0.299c0.239,0.228,0.477,0.456,0.716,0.684
			c-0.219,0.001-0.438,0.001-0.656,0.002c-0.562-0.104-1.123-0.208-1.685-0.312c-3.481-2.085-6.974-4.153-10.425-6.287
			c-0.302-0.187-0.334-0.811-0.492-1.233c0.339-0.02,0.717-0.149,1.013-0.044C80.724,176.522,85.258,178.165,89.794,179.801z
			 M79.555,177.172c-0.372-0.185-0.478-0.283-0.581-0.28c-0.253,0.008-0.504,0.063-0.755,0.099c0.1,0.107,0.193,0.294,0.302,0.303
			C78.759,177.315,79.005,177.246,79.555,177.172z M88.117,180.454c-0.16,0.069-0.297,0.127-0.433,0.186
			c0.087,0.11,0.202,0.326,0.256,0.312c0.186-0.05,0.351-0.179,0.524-0.279C88.352,180.601,88.239,180.531,88.117,180.454z
			 M86.984,181.946c-0.044-0.139-0.08-0.318-0.104-0.317c-0.147,0.01-0.291,0.06-0.436,0.098c0.036,0.117,0.075,0.335,0.108,0.334
			C86.697,182.058,86.84,181.99,86.984,181.946z"/>
		<path fill="#F99B0B" d="M145.814,175.546c0.454,0.553,0.908,1.105,1.362,1.658c0.005,0.054,0.037,0.129,0.013,0.159
			c-0.626,0.753-1.257,1.501-1.888,2.25c0.039-0.838,0.04-1.681,0.132-2.514C145.49,176.574,145.682,176.063,145.814,175.546z"/>
		<path fill="#FB9A09" d="M136.627,167.594c0.284,0.573,0.384,1.115,1.361,0.595c0.72-0.383,1.78-0.124,2.689-0.151
			c-1.191,0.3-2.374,0.638-3.577,0.88c-0.413,0.083-0.874-0.077-1.314-0.125C136.067,168.394,136.347,167.994,136.627,167.594z"/>
		<path fill="#F99A09" d="M137.656,175.564c1.309-0.439,2.618-0.877,3.927-1.316c-0.869,0.771-1.739,1.542-2.608,2.313
			C138.535,176.228,138.095,175.896,137.656,175.564L137.656,175.564z"/>
		<path fill="#FA9708" d="M92.991,185.092c1.423-0.093,2.818-0.073,3.968,0.962C95.637,185.734,94.314,185.413,92.991,185.092z"/>
		<path fill="#FA9A0B" d="M126.845,183.485c0.033-0.502,0.019-1.015,0.133-1.498c0.029-0.125,0.46-0.155,0.707-0.228
			c-0.199,2.037,1.263,0.084,1.66,0.691C128.511,182.795,127.678,183.14,126.845,183.485z"/>
		<path fill="#F99A18" d="M149.167,170.698c-0.11-1.784-0.22-3.568-0.33-5.352C148.947,167.13,149.057,168.914,149.167,170.698z"/>
		<path fill="#FB970D" d="M100.292,181.451c-0.781,0.121-1.562,0.245-2.344,0.359c-0.269,0.039-0.542,0.051-0.813,0.076
			c0.164-0.257,0.327-0.514,0.491-0.771C98.514,181.227,99.403,181.339,100.292,181.451z"/>
		<path fill="#F89C0C" d="M119.936,180.139c-1.015,0.215-2.029,0.429-3.044,0.644C117.906,180.568,118.921,180.353,119.936,180.139z
			"/>
		<path fill="#FB9A09" d="M141.911,165.018c-0.978,0.344-1.956,0.688-2.933,1.031C139.955,165.706,140.933,165.362,141.911,165.018z
			"/>
		<path fill="#FB9A09" d="M138.971,166.052c0.128,0.304,0.255,0.608,0.383,0.912c-0.477-0.096-0.955-0.191-1.432-0.287
			C138.272,166.469,138.622,166.26,138.971,166.052z"/>
		<path fill="#F99B0B" d="M86.084,182.472c0.562,0.104,1.123,0.208,1.685,0.312c-0.011,0.137-0.022,0.273-0.034,0.41
			C87.185,182.954,86.634,182.713,86.084,182.472z"/>
		<path fill="#F99B0B" d="M147.854,175.951c0.103-0.348,0.205-0.696,0.308-1.044C148.059,175.255,147.957,175.603,147.854,175.951z"
			/>
		<path fill="#F99B0B" d="M146.17,173.541c-0.101,0.565-0.201,1.129-0.302,1.694C145.968,174.67,146.069,174.106,146.17,173.541z"/>
		<path fill="#FE9017" d="M136.34,174.264c0.11,0.191,0.22,0.382,0.33,0.573c-0.33-0.09-0.661-0.179-0.991-0.269
			C135.899,174.466,136.12,174.365,136.34,174.264z"/>
		<path fill="#FB9A09" d="M141.601,167.981c0.577-0.087,1.153-0.174,1.73-0.262C142.755,167.806,142.178,167.893,141.601,167.981z"
			/>
		<path fill="#F79B07" d="M91.331,184.56c0.123-0.216,0.246-0.431,0.369-0.647c0.005,0.27,0.01,0.54,0.016,0.81
			C91.588,184.669,91.459,184.615,91.331,184.56z"/>
		<path fill="#040404" d="M107.669,166.186c-0.203-0.091-0.458-0.204-0.714-0.318c0.126-0.115,0.264-0.339,0.375-0.327
			c0.577,0.065,1.148,0.19,1.721,0.294C108.629,165.942,108.207,166.049,107.669,166.186z"/>
		<path fill="#171717" d="M118.089,166.943c0.64-0.123,0.926-0.217,1.211-0.213c0.107,0.002,0.21,0.232,0.315,0.358
			c-0.243,0.084-0.482,0.215-0.73,0.236C118.733,167.336,118.566,167.181,118.089,166.943z"/>
		<path fill="#070707" d="M114.748,128.218c-0.214,0.235-0.363,0.435-0.553,0.583c-0.046,0.036-0.225-0.101-0.344-0.158
			c0.188-0.226,0.374-0.454,0.575-0.668C114.434,127.967,114.594,128.101,114.748,128.218z"/>
		<path fill="#070707" d="M104.338,118.012c-0.321,0.154-0.499,0.276-0.694,0.314c-0.074,0.014-0.186-0.166-0.28-0.258
			c0.174-0.086,0.34-0.203,0.524-0.247C103.98,117.799,104.104,117.907,104.338,118.012z"/>
		<path fill="#080808" d="M90.32,123.646c0.286,0.182,0.571,0.363,0.857,0.545c-0.1,0.099-0.199,0.199-0.299,0.298
			c-0.182-0.285-0.363-0.571-0.545-0.856L90.32,123.646z"/>
		<path fill="#070707" d="M131.111,163.15c0.226,0.184,0.442,0.301,0.427,0.357c-0.06,0.228-0.192,0.438-0.297,0.654
			c-0.091-0.125-0.24-0.243-0.258-0.377C130.962,163.616,131.048,163.434,131.111,163.15z"/>
		<path fill="#080808" d="M88.01,132.837c0.347,0.412,0.47,0.557,0.592,0.702c-0.105,0.077-0.269,0.24-0.304,0.216
			c-0.157-0.108-0.313-0.251-0.395-0.419C87.856,133.242,87.953,133.077,88.01,132.837z"/>
		<path fill="#070707" d="M126.803,126.747c-0.06-0.133-0.12-0.266-0.181-0.399c0.116-0.052,0.232-0.103,0.348-0.155
			c0.043,0.144,0.098,0.286,0.115,0.432C127.089,126.651,126.927,126.696,126.803,126.747z"/>
		<path fill="#050505" d="M88.826,150.918c-0.128,0.158-0.205,0.255-0.283,0.351c-0.072-0.199-0.162-0.395-0.208-0.6
			c-0.015-0.067,0.082-0.159,0.128-0.24C88.58,150.586,88.697,150.743,88.826,150.918z"/>
		<path fill="#070707" d="M128.709,157.48c-0.144-0.415-0.232-0.55-0.227-0.681c0.008-0.202,0.081-0.402,0.126-0.603
			c0.061,0.128,0.161,0.252,0.172,0.384C128.797,156.78,128.753,156.986,128.709,157.48z"/>
		<path fill="#050505" d="M95.335,172.374c-0.367,0.056-0.516,0.128-0.602,0.082c-0.165-0.089-0.295-0.244-0.44-0.372
			c0.096-0.033,0.208-0.115,0.285-0.089C94.766,172.057,94.937,172.169,95.335,172.374z"/>
		<path fill="#FD9606" d="M113.697,182.784c0.109-0.218,0.219-0.437,0.328-0.655c0.328,0,0.656-0.001,0.984-0.001
			c0.327,0,0.654-0.008,0.98,0.002c0.648,0.02,1.296,0.051,1.944,0.078c-0.646,0.192-1.292,0.385-1.939,0.577
			C115.229,182.784,114.463,182.784,113.697,182.784z"/>
		<path fill="#F69B03" d="M115.01,182.128c-0.328,0-0.656,0.001-0.984,0.001c-0.783,0.043-1.566,0.085-2.349,0.128
			c0.798-0.157,1.594-0.321,2.394-0.467c0.639-0.117,1.283-0.211,1.924-0.316c0,0.109,0,0.217,0,0.326
			C115.666,181.908,115.338,182.018,115.01,182.128z"/>
		<path fill="#F89C02" d="M132.405,179.174c-0.27-0.106-0.541-0.211-0.811-0.317c0.211-0.082,0.42-0.225,0.633-0.232
			c0.257-0.009,0.522,0.157,0.775,0.138c0.308-0.024,0.608-0.162,0.911-0.25c-0.284,0.33-0.567,0.66-0.851,0.989
			C132.843,179.393,132.624,179.284,132.405,179.174z"/>
		<path fill="#F89C01" d="M113.697,182.784c0.766,0,1.532,0,2.299,0c-0.801,0.109-1.599,0.253-2.403,0.313
			c-0.374,0.028-0.76-0.106-1.14-0.166C112.867,182.882,113.282,182.833,113.697,182.784z"/>
		<path fill="#F89C01" d="M100.941,186.07c-0.299-0.34-0.567-0.644-0.834-0.948c0.16-0.062,0.359-0.216,0.474-0.168
			c0.374,0.153,0.719,0.381,1.074,0.58C101.448,185.689,101.241,185.845,100.941,186.07z"/>
		<path fill="#FC9210" d="M129.77,178.057c-0.761,0.444-1.031,0.666-1.34,0.756c-0.171,0.05-0.406-0.121-0.613-0.193
			c0.31-0.188,0.609-0.396,0.934-0.553C128.878,178.006,129.059,178.057,129.77,178.057z"/>
		<path fill="#F99908" d="M139.405,173.479c0.316,0.25,0.531,0.394,0.697,0.581c0.024,0.027-0.233,0.393-0.277,0.377
			c-0.243-0.09-0.479-0.229-0.671-0.403C139.117,174.001,139.284,173.741,139.405,173.479z"/>
		<path fill="#FC9509" d="M132.405,179.174c0.219,0.109,0.438,0.218,0.657,0.328c-0.342,0.185-0.685,0.37-1.027,0.555
			C132.158,179.763,132.281,179.469,132.405,179.174z"/>
		<path fill="#F99B0B" d="M88.425,182.783c-0.239-0.228-0.477-0.456-0.716-0.684c0.238-0.1,0.477-0.199,0.715-0.299
			C88.425,182.127,88.425,182.455,88.425,182.783z"/>
		<path fill="#F89C0C" d="M115.995,181.799c0-0.109,0-0.217,0-0.326c0.054,0,0.107-0.001,0.161-0.001
			c0.538,0.003,1.076,0.006,1.614,0.009C117.178,181.587,116.587,181.693,115.995,181.799z"/>
		<path fill="#FA9A0B" d="M125.424,183.241c-0.179-0.229-0.29-0.371-0.402-0.514c0.125-0.075,0.27-0.232,0.37-0.207
			c0.181,0.045,0.335,0.199,0.5,0.307C125.762,182.943,125.632,183.058,125.424,183.241z"/>
		<path fill="#F99A09" d="M137.656,175.564c-0.242,0.056-0.483,0.111-0.725,0.167c0.09-0.169,0.181-0.339,0.271-0.508
			C137.353,175.336,137.505,175.45,137.656,175.564L137.656,175.564z"/>
		<path fill="#FE9609" d="M89.409,181.143c0.109-0.109,0.219-0.219,0.328-0.328c0.16,0.152,0.32,0.303,0.481,0.455
			C89.948,181.228,89.679,181.185,89.409,181.143z"/>
		<path fill="#F59B08" d="M147.632,170.07c-0.234-0.746-0.368-1.079-0.424-1.424c-0.014-0.088,0.221-0.217,0.342-0.327
			c0.093,0.29,0.213,0.576,0.266,0.873C147.844,169.345,147.754,169.52,147.632,170.07z"/>
		<path fill="#F49D04" d="M149.15,166.956c-0.455,0.348-0.593,0.454-0.731,0.56c-0.079-0.126-0.227-0.256-0.22-0.377
			c0.009-0.169,0.135-0.47,0.209-0.47C148.601,166.669,148.793,166.805,149.15,166.956z"/>
		<path fill="#F29C08" d="M147.045,170.471c0.157,0.313,0.285,0.49,0.325,0.684c0.017,0.083-0.149,0.204-0.231,0.308
			c-0.093-0.168-0.219-0.328-0.267-0.509C146.845,170.855,146.949,170.721,147.045,170.471z"/>
		<path fill="#FC950E" d="M79.555,177.172c-0.55,0.073-0.796,0.143-1.034,0.122c-0.109-0.01-0.202-0.197-0.302-0.303
			c0.252-0.036,0.503-0.091,0.755-0.099C79.077,176.889,79.183,176.987,79.555,177.172z"/>
		<path fill="#F99B0B" d="M88.117,180.454c0.122,0.077,0.235,0.148,0.347,0.219c-0.173,0.099-0.338,0.229-0.524,0.279
			c-0.054,0.014-0.169-0.201-0.256-0.312C87.82,180.581,87.957,180.522,88.117,180.454z"/>
		<path fill="#F99B0B" d="M86.984,181.946c-0.145,0.044-0.287,0.112-0.432,0.115c-0.034,0.001-0.072-0.217-0.108-0.334
			c0.145-0.037,0.289-0.088,0.436-0.098C86.904,181.628,86.94,181.807,86.984,181.946z"/>
	</g>
</g>
<g>
	<g>
		<path fill="#FFFFFF" d="M244.5,214c-12.407,0-22.5-10.094-22.5-22.5v-82c0-12.407,10.093-22.5,22.5-22.5h82
			c12.406,0,22.5,10.093,22.5,22.5v82c0,12.406-10.094,22.5-22.5,22.5H244.5z"/>
		<path fill="#C9C9C9" d="M326.5,90c11.028,0,19.5,8.472,19.5,19.5v82c0,11.028-8.472,20.5-19.5,20.5h-82
			c-11.028,0-20.5-9.472-20.5-20.5v-82c0-11.028,9.472-19.5,20.5-19.5H326 M326.5,85h-82c-13.807,0-25.5,10.693-25.5,24.5v82
			c0,13.807,11.693,25.5,25.5,25.5h82c13.807,0,24.5-11.693,24.5-25.5v-82C351,95.693,340.307,85,326.5,85L326.5,85z"/>
	</g>
	<g>
		<path fill="#0466D1" d="M260.314,146.352c0.055-0.449,0.158-0.897,0.158-1.346c0.011-5.477,0.007-10.955,0.007-16.526
			c1.801,0,3.514,0,5.373,0c0,4.295,0,8.624,0,13.174c0.41-0.247,0.647-0.339,0.819-0.5c5.124-4.788,14.645-4.239,19.101,1.15
			c2.232,2.699,2.948,5.894,2.803,9.33c-0.012,0.276,0.034,0.554,0.052,0.832c-0.22,0.96-0.439,1.92-0.659,2.88
			c-0.726,1.239-1.307,2.596-2.202,3.698c-4.478,5.515-13.954,6.028-19.119,1.107c-0.189-0.181-0.39-0.35-0.712-0.637
			c-0.096,1.132-0.176,2.08-0.26,3.076c-1.798,0-3.468,0-5.266,0c0-3.575,0-7.109,0-10.643
			C260.378,150.081,260.346,148.217,260.314,146.352z M274.307,159.817c5.018,0.032,8.59-3.71,8.65-9.061
			c0.061-5.402-3.411-9.152-8.484-9.166c-5.015-0.014-8.509,3.634-8.579,8.956C265.824,155.927,269.324,159.785,274.307,159.817z"/>
		<path fill="#F2AE07" d="M287.968,155.346c0.22-0.96,0.439-1.92,0.659-2.88c2.408-3.766,6.301-4.401,10.252-4.661
			c3.067-0.202,6.159-0.04,9.203-0.04c0.588-2.662-0.444-4.687-2.832-5.643c-2.016-0.806-4.1-0.818-6.196-0.332
			c-1.544,0.358-2.718,1.174-3.376,2.677c-0.122,0.28-0.47,0.643-0.725,0.652c-1.672,0.058-3.347,0.03-5.123,0.03
			c0.195-2.32,1.31-3.888,3.033-5.088c4.13-2.875,13.128-3.03,17.328-0.294c0.428,0.279,0.805,0.635,1.205,0.955
			c0.188,0.187,0.377,0.374,0.565,0.561l-0.01-0.013c0.094,0.104,0.189,0.209,0.283,0.313c0.377,0.74,0.755,1.479,1.132,2.219
			c0.096,0.389,0.192,0.779,0.288,1.168c0.07,3.644,0.156,7.289,0.206,10.933c0.03,2.191,0.006,4.382,0.006,6.664
			c-1.562,0-3.131,0-4.905,0c-0.047-0.928-0.095-1.884-0.15-2.97c-0.224,0.126-0.437,0.186-0.562,0.326
			c-3.647,4.082-11.84,4.564-16.088,2.358C289.345,160.819,288.08,158.435,287.968,155.346z M308.306,151.378
			c-2.629,0-5.145-0.106-7.646,0.039c-1.563,0.09-3.176,0.365-4.64,0.9c-2.492,0.91-3.112,3.848-1.384,5.881
			c0.298,0.35,0.654,0.706,1.059,0.9c3.204,1.536,6.404,1.268,9.389-0.461C307.802,157.063,308.613,154.44,308.306,151.378z"/>
		<path fill="#E4363C" d="M260.314,146.352c0.032,1.865,0.064,3.729,0.096,5.594c-0.556,0.04-1.111,0.114-1.667,0.114
			c-6.09,0.008-12.179,0.005-18.269,0.005c-0.501,0-1.003,0-1.476,0c-0.39,2.583,1.142,5.329,3.586,6.757
			c3.284,1.92,9.473,1.561,11.451-2.456c0.127-0.257,0.559-0.504,0.856-0.514c1.584-0.051,3.17-0.024,4.892-0.024
			c-0.546,2.549-1.874,4.478-4.025,5.551c-5.93,2.959-12.002,2.983-17.712-0.393c-4.248-2.512-4.995-6.94-4.671-11.471
			c0.488-6.814,3.954-10.481,10.762-11.351c2.196-0.281,4.501-0.212,6.696,0.11c4.437,0.651,7.463,3.234,9.062,7.452
			C259.982,145.955,260.172,146.144,260.314,146.352z M254.638,148.45c0.108-4.455-3.235-7.209-8.31-6.937
			c-4.293,0.23-7.65,3.453-7.185,6.937C244.307,148.45,249.474,148.45,254.638,148.45z"/>
		<path fill="#89B91D" d="M313.366,143.802c-0.377-0.74-0.755-1.479-1.132-2.219c-0.094-0.105-0.189-0.209-0.283-0.313l0.01,0.013
			c-0.083-0.276-0.165-0.551-0.248-0.827c-0.224-0.456-0.449-0.913-0.774-1.575c1.995,0,3.847-0.063,5.688,0.051
			c0.381,0.024,0.838,0.646,1.063,1.092c2.683,5.304,5.328,10.628,7.986,15.945c0.202,0.403,0.433,0.792,0.78,1.423
			c1.519-3.031,2.922-5.822,4.318-8.616c1.505-3.012,2.985-6.037,4.529-9.029c0.193-0.374,0.696-0.805,1.078-0.827
			c1.572-0.093,3.153-0.039,4.929-0.039c-1.531,3.03-2.973,5.903-4.431,8.767c-3.865,7.588-7.751,15.165-11.589,22.766
			c-0.434,0.859-0.903,1.263-1.913,1.196c-1.474-0.099-2.959-0.025-4.623-0.025c1.387-2.644,2.63-5.153,4.012-7.583
			c0.577-1.015,0.589-1.79,0.027-2.826c-2.919-5.389-5.754-10.823-8.618-16.241C313.905,144.557,313.635,144.18,313.366,143.802z"/>
		<path fill="#77742D" d="M313.366,143.802c0.27,0.377,0.54,0.754,0.809,1.131c-0.174,0.012-0.347,0.024-0.521,0.037
			C313.558,144.581,313.462,144.192,313.366,143.802z"/>
		<path fill="#868426" d="M311.712,140.456c0.083,0.276,0.165,0.551,0.248,0.827c-0.188-0.187-0.377-0.374-0.565-0.561
			C311.501,140.634,311.606,140.545,311.712,140.456z"/>
		<path fill="#868426" d="M311.95,141.27c0.094,0.104,0.189,0.209,0.283,0.313C312.139,141.479,312.044,141.375,311.95,141.27z"/>
	</g>
</g>
<g>
	<g>
		<path fill="#FFFFFF" d="M420.5,214c-12.406,0-22.5-10.094-22.5-22.5v-82c0-12.407,10.094-22.5,22.5-22.5h82
			c12.406,0,22.5,10.093,22.5,22.5v82c0,12.406-10.094,22.5-22.5,22.5H420.5z"/>
		<path fill="#C9C9C9" d="M502.5,90c11.028,0,19.5,8.472,19.5,19.5v82c0,11.028-8.472,20.5-19.5,20.5h-82
			c-11.028,0-20.5-9.472-20.5-20.5v-82c0-11.028,9.472-19.5,20.5-19.5H502 M502.5,85h-82c-13.807,0-25.5,10.693-25.5,24.5v82
			c0,13.807,11.693,25.5,25.5,25.5h82c13.807,0,24.5-11.693,24.5-25.5v-82C527,95.693,516.307,85,502.5,85L502.5,85z"/>
	</g>
	<g>
		<path d="M412.875,158.728c0.781-2.363,2.127-4.454,3.247-6.651c2.291-4.497,4.645-8.96,6.974-13.438
			c0.044-0.084,0.084-0.17,0.123-0.249c-0.073-0.08-0.149-0.052-0.216-0.052c-1.643-0.002-3.286,0-4.929-0.001
			c-0.439,0-0.877,0.024-1.307,0.113c-1.232,0.255-1.756,0.842-1.915,2.14c-0.033,0.265-0.066,0.533-0.068,0.799
			c-0.001,0.196-0.071,0.246-0.257,0.239c-0.377-0.014-0.755-0.012-1.132-0.001c-0.171,0.005-0.232-0.043-0.231-0.222
			c0.006-1.789,0.007-3.578-0.001-5.367c-0.001-0.209,0.083-0.232,0.258-0.232c3.992,0.005,7.984,0.004,11.976,0.012
			c0.277,0.001,0.559,0.039,0.831,0.098c1.381,0.305,2.015,1.354,1.662,2.728c-0.082,0.319-0.212,0.618-0.364,0.91
			c-3.251,6.24-6.502,12.479-9.75,18.721c-0.053,0.102-0.146,0.194-0.126,0.357c0.131,0,0.261,0,0.39,0
			c3.335,0,6.67,0.006,10.004-0.009c0.348-0.002,0.417,0.104,0.404,0.421c-0.024,0.595-0.016,1.193-0.002,1.789
			c0.005,0.214-0.041,0.293-0.277,0.293c-4.382-0.008-8.763-0.002-13.145-0.01c-1.028-0.002-1.744-0.541-2.083-1.511
			c-0.01-0.028-0.043-0.049-0.065-0.073C412.875,159.264,412.875,158.996,412.875,158.728z"/>
		<path fill="#171717" d="M510.009,171.947c-0.411-0.172-0.776-0.393-0.94-0.842c-0.236-0.645,0.084-1.366,0.724-1.624
			c0.669-0.27,1.441,0.03,1.72,0.67c0.281,0.645-0.008,1.384-0.659,1.679c-0.087,0.039-0.174,0.078-0.261,0.117
			C510.398,171.947,510.203,171.947,510.009,171.947z M510.291,171.673c0.56,0.012,0.984-0.407,0.997-0.983
			c0.012-0.569-0.4-1.025-0.946-1.048c-0.557-0.023-1.01,0.428-1.015,1.012C509.322,171.23,509.73,171.661,510.291,171.673z"/>
		<path fill="#5D80A7" d="M480.576,171.508c-4.879,0-9.758,0-14.638,0c-1.024,0-1.518-0.492-1.519-1.519
			c-0.002-1.825-0.002-3.65,0-5.475c0.001-1.037,0.51-1.539,1.549-1.539c9.758,0,19.517,0,29.275,0c1.021,0,1.547,0.526,1.547,1.551
			c0.001,1.837,0.001,3.675,0,5.512c-0.001,0.941-0.528,1.47-1.467,1.47C490.407,171.508,485.492,171.508,480.576,171.508z
			 M484.976,167.204c0,0.669-0.009,1.339,0.004,2.008c0.007,0.349-0.159,0.803,0.073,1.017c0.226,0.209,0.677,0.03,1.026,0.066
			c0.285,0.029,0.343-0.089,0.34-0.352c-0.012-1.265-0.006-2.531-0.004-3.796c0-0.119-0.022-0.241,0.045-0.356
			c0.245-0.416,0.921-0.671,1.416-0.532c0.477,0.134,0.68,0.445,0.682,1.063c0.003,1.217,0.007,2.434-0.003,3.65
			c-0.002,0.245,0.049,0.355,0.321,0.326c0.253-0.028,0.512-0.025,0.765-0.001c0.295,0.028,0.363-0.086,0.36-0.368
			c-0.015-1.265-0.007-2.531-0.005-3.796c0-0.131-0.017-0.261,0.062-0.388c0.239-0.38,0.832-0.612,1.321-0.504
			c0.459,0.102,0.714,0.431,0.752,0.988c0.067,0.984,0.008,1.971,0.035,2.955c0.01,0.359-0.165,0.83,0.084,1.046
			c0.239,0.207,0.7,0.041,1.063,0.063c0.195,0.012,0.284-0.045,0.282-0.263c-0.011-1.363,0.008-2.726-0.023-4.088
			c-0.016-0.695-0.329-1.265-0.956-1.62c-0.785-0.444-2.058-0.348-2.763,0.218c-0.137,0.11-0.21,0.14-0.354,0.011
			c-0.665-0.596-2.38-0.755-3.08-0.002c-0.072,0.078-0.174,0.151-0.22,0.003c-0.15-0.472-0.523-0.401-0.887-0.413
			c-0.286-0.01-0.346,0.102-0.342,0.363C484.984,165.403,484.976,166.303,484.976,167.204z M483.796,167.222
			c0-0.17,0.013-0.341-0.002-0.51c-0.1-1.145-0.606-2.043-1.715-2.443c-1.162-0.418-2.303-0.353-3.263,0.543
			c-0.917,0.856-1.057,1.95-0.876,3.121c0.348,2.256,2.909,3.302,4.72,1.919C483.52,169.196,483.829,168.275,483.796,167.222z
			 M475.241,164.05c-0.957-0.001-1.76,0.19-2.421,0.781c-0.925,0.827-1.11,1.897-0.96,3.061c0.131,1.021,0.605,1.821,1.583,2.234
			c0.97,0.41,1.97,0.398,2.954,0.054c0.758-0.265,0.749-0.288,0.414-1.005c-0.015-0.033-0.033-0.066-0.043-0.1
			c-0.092-0.303-0.201-0.378-0.519-0.176c-0.685,0.435-1.433,0.449-2.149,0.068c-0.67-0.356-0.774-1.01-0.773-1.692
			c0-0.097,0.001-0.195,0.008-0.292c0.094-1.44,1.181-2.063,2.558-1.642c0.215,0.066,0.397,0.366,0.581,0.259
			c0.183-0.107,0.258-0.397,0.381-0.606c0.018-0.031,0.034-0.066,0.057-0.093c0.177-0.21,0.084-0.328-0.124-0.442
			C476.275,164.175,475.735,164.022,475.241,164.05z M466.261,167.952c-0.001,0.945,0.704,1.72,1.567,1.722
			c0.849,0.002,1.57-0.796,1.564-1.733c-0.006-0.956-0.705-1.715-1.575-1.711C466.941,166.234,466.263,166.985,466.261,167.952z"/>
		<path d="M447.186,159.963c0,0.213,0,0.33,0,0.446c0,2.069,0,4.138,0,6.206c0,0.431-0.062,0.846-0.271,1.231
			c-0.405,0.747-1.165,1.111-1.992,0.952c-0.755-0.145-1.441-0.939-1.517-1.765c-0.016-0.169-0.013-0.34-0.013-0.511
			c-0.001-6.499,0.001-12.997-0.007-19.496c0-0.282,0.063-0.375,0.353-0.355c0.643,0.045,1.288,0.053,1.928-0.065
			c0.414-0.077,0.784-0.223,1.1-0.521c0.496-0.467,1.037-0.886,1.52-1.366c1.707-1.697,4.877-1.52,6.549,0.458
			c0.992,1.175,1.545,2.55,1.812,4.039c0.48,2.679,0.466,5.349-0.32,7.978c-0.385,1.289-1.026,2.432-2.066,3.326
			C452.642,161.915,449.227,162.492,447.186,159.963z M447.186,152.555c0.02,0.895-0.049,1.956,0.088,3.01
			c0.118,0.91,0.313,1.789,0.848,2.566c0.758,1.1,2.749,1.417,3.633-0.155c0.307-0.546,0.513-1.126,0.631-1.736
			c0.433-2.244,0.42-4.5,0.127-6.756c-0.11-0.844-0.321-1.673-0.804-2.397c-0.732-1.097-2.057-1.274-2.963-0.321
			c-0.941,0.989-1.538,2.173-1.557,3.583C447.179,151.029,447.186,151.711,447.186,152.555z"/>
		<path d="M462.325,160.002c0,0.151,0,0.267,0,0.383c0,2.106-0.003,4.212,0.002,6.317c0.001,0.475-0.099,0.915-0.373,1.309
			c-0.466,0.672-1.118,0.948-1.902,0.774c-0.799-0.176-1.252-0.752-1.453-1.524c-0.057-0.22-0.066-0.458-0.066-0.687
			c-0.003-6.512,0-13.024-0.011-19.536c-0.001-0.32,0.095-0.384,0.386-0.365c0.729,0.046,1.458,0.061,2.176-0.127
			c0.3-0.079,0.562-0.212,0.792-0.425c0.501-0.462,1.035-0.89,1.515-1.373c1.626-1.637,4.58-1.553,6.245,0.094
			c1.139,1.127,1.755,2.528,2.055,4.068c0.556,2.857,0.55,5.707-0.32,8.512c-0.373,1.204-1.012,2.252-1.977,3.091
			c-1.702,1.48-5.107,1.884-6.947-0.428C462.425,160.059,462.391,160.046,462.325,160.002z M467.867,152.775
			c0-1.282-0.047-2.314-0.217-3.336c-0.144-0.866-0.345-1.717-0.876-2.443c-0.747-1.02-2.001-1.119-2.907-0.241
			c-0.291,0.282-0.525,0.607-0.714,0.962c-0.36,0.674-0.787,1.365-0.805,2.123c-0.043,1.834-0.103,3.673,0.052,5.505
			c0.082,0.972,0.281,1.916,0.837,2.755c0.735,1.109,2.769,1.486,3.678-0.14c0.148-0.265,0.277-0.538,0.374-0.826
			C467.792,155.637,467.835,154.083,467.867,152.775z"/>
		<path fill="#5D7FA7" d="M512.87,144.456c-0.089,5.527-1.017,10.895-3.08,16.045c-0.267,0.666-0.596,1.303-0.953,1.926
			c-0.113,0.197-0.188,0.257-0.396,0.088c-1.763-1.428-3.8-1.816-6.002-1.551c-0.265,0.032-0.538,0.044-0.792,0.119
			c-0.258,0.076-0.339-0.009-0.385-0.244c-0.152-0.789-0.259-1.584-0.302-2.384c-0.241-4.43,0.282-8.782,1.356-13.077
			c0.52-2.078,1.157-4.116,2.139-6.028c0.519-1.01,1.132-1.954,2.012-2.704c1.728-1.474,3.992-1.055,5.148,0.999
			c0.644,1.145,0.913,2.4,1.094,3.679C512.855,142.361,512.891,143.406,512.87,144.456z M511.171,146.357
			c-2.289,2.061-4.525,4.074-6.803,6.126c0.489,0.11,0.911,0.205,1.333,0.299c1.457,0.325,2.915,0.646,4.371,0.977
			c0.246,0.056,0.378,0.038,0.398-0.263c0.018-0.276,0.106-0.547,0.159-0.821C511.023,150.616,511.251,148.542,511.171,146.357z
			 M502.271,156.104c0.018,0.328,0.058,0.657,0.045,0.983c-0.01,0.257,0.108,0.326,0.326,0.372c1.995,0.418,3.99,0.839,5.981,1.275
			c0.238,0.052,0.322-0.022,0.399-0.221c0.268-0.691,0.499-1.394,0.727-2.098c0.071-0.218,0.029-0.293-0.196-0.343
			c-2.332-0.524-4.662-1.056-6.991-1.594c-0.173-0.04-0.23-0.026-0.241,0.168C502.296,155.131,502.252,155.616,502.271,156.104z
			 M508.594,138.772c-0.393-0.019-0.73,0.158-1.029,0.388c-1.11,0.855-1.765,2.049-2.39,3.262c-0.12,0.234,0.1,0.202,0.199,0.225
			c1.783,0.412,3.569,0.811,5.351,1.23c0.299,0.07,0.336-0.038,0.303-0.282c-0.107-0.794-0.237-1.583-0.486-2.347
			c-0.234-0.717-0.48-1.43-0.996-2.006C509.295,138.964,509.004,138.753,508.594,138.772z M502.634,151.337
			c2.205-1.864,4.349-3.676,6.534-5.522c-0.124-0.042-0.179-0.066-0.236-0.078c-1.445-0.324-2.892-0.637-4.333-0.979
			c-0.301-0.072-0.415-0.026-0.52,0.277c-0.549,1.588-0.951,3.212-1.229,4.867C502.775,150.35,502.636,150.789,502.634,151.337z"/>
		<path d="M441.143,153.877c0,1.424,0.001,2.848-0.001,4.272c-0.001,0.29,0.095,0.68-0.054,0.844c-0.173,0.192-0.57,0.048-0.87,0.06
			c-0.462,0.018-0.925,0.01-1.386,0.04c-0.534,0.034-1.016,0.224-1.437,0.56c-0.371,0.295-0.77,0.561-1.113,0.885
			c-1.453,1.372-4.038,1.167-5.518,0.099c-2.71-1.957-2.25-6.042,0.412-7.664c1.206-0.734,2.525-1.115,3.903-1.322
			c0.649-0.097,1.304-0.147,1.957-0.216c0.116-0.012,0.241,0.025,0.237-0.176c-0.025-1.421,0.081-2.849-0.224-4.255
			c-0.056-0.259-0.135-0.519-0.245-0.759c-0.265-0.583-0.795-0.872-1.383-0.786c-0.6,0.088-0.96,0.458-1.071,1.12
			c-0.103,0.611-0.188,1.225-0.295,1.835c-0.191,1.092-0.948,1.732-2.047,1.758c-0.153,0.004-0.247-0.059-0.344-0.159
			c-0.608-0.631-1.214-1.264-1.831-1.885c-0.139-0.14-0.153-0.278-0.133-0.458c0.214-1.874,1.318-3.045,3.011-3.678
			c1.7-0.635,3.455-0.64,5.203-0.194c1.682,0.429,2.559,1.612,2.927,3.242c0.188,0.833,0.29,1.677,0.294,2.531
			c0.007,1.436,0.002,2.872,0.002,4.308C441.14,153.877,441.141,153.877,441.143,153.877z M437.271,155.156
			c0-0.511-0.006-1.023,0.003-1.534c0.003-0.176-0.022-0.256-0.233-0.239c-0.792,0.066-1.568,0.2-2.293,0.538
			c-0.749,0.35-1.303,0.885-1.521,1.71c-0.201,0.762-0.16,1.519,0.097,2.26c0.192,0.553,0.583,0.876,1.173,0.956
			c1.273,0.173,2.774-1.13,2.774-2.414C437.271,156.008,437.271,155.582,437.271,155.156z"/>
		<path d="M473.243,153.021c0.003-2.073,0.14-3.741,0.691-5.348c0.954-2.782,2.921-4.176,5.86-4.16
			c2.704,0.015,4.447,1.439,5.528,3.805c0.588,1.287,0.829,2.662,0.913,4.064c0.117,1.965,0.041,3.919-0.559,5.813
			c-0.564,1.781-1.555,3.242-3.395,3.881c-2.079,0.722-4.146,0.668-6.065-0.522c-1.392-0.863-2.075-2.242-2.497-3.766
			C473.344,155.43,473.239,154.037,473.243,153.021z M482.477,152.45c-0.01-0.993-0.034-2.1-0.155-3.201
			c-0.099-0.908-0.283-1.8-0.736-2.611c-0.274-0.49-0.639-0.884-1.194-1.064c-1.049-0.339-2.063,0.159-2.576,1.281
			c-0.347,0.759-0.502,1.57-0.599,2.392c-0.243,2.061-0.242,4.128-0.062,6.192c0.083,0.955,0.207,1.911,0.634,2.79
			c0.377,0.777,0.962,1.266,1.863,1.307c0.956,0.043,1.626-0.401,2.077-1.212c0.335-0.602,0.491-1.262,0.602-1.936
			C482.538,155.119,482.472,153.841,482.477,152.45z"/>
		<path d="M496.852,146.079c0,0.548-0.007,1.095,0.004,1.643c0.004,0.189-0.053,0.275-0.247,0.248c-0.024-0.003-0.049,0-0.073,0
			c-0.316-0.001-0.673,0.091-0.938-0.027c-0.285-0.126-0.125-0.536-0.215-0.812c-0.217-0.668-0.644-1.104-1.317-1.29
			c-0.596-0.165-1.203-0.183-1.806-0.053c-1.215,0.262-1.709,1.503-1.017,2.543c0.342,0.514,0.803,0.915,1.305,1.262
			c0.919,0.636,1.863,1.235,2.778,1.876c1.391,0.974,2.141,2.35,2.407,4.004c0.133,0.827,0.082,1.653-0.151,2.457
			c-0.377,1.305-1.162,2.327-2.388,2.891c-2.115,0.974-4.248,0.884-6.31-0.199c-0.697-0.366-1.22-0.926-1.325-1.768
			c-0.065-0.523,0.115-0.778,0.632-0.877c0.441-0.084,0.84-0.052,1.241,0.229c0.935,0.656,1.954,1.053,3.142,0.901
			c1.445-0.184,2.12-1.417,1.453-2.721c-0.256-0.499-0.648-0.881-1.093-1.205c-0.905-0.657-1.827-1.289-2.729-1.95
			c-0.599-0.439-1.163-0.923-1.642-1.496c-2.479-2.964-0.949-7.296,2.829-8.058c1.814-0.366,3.551-0.039,5.282,0.458
			c0.171,0.049,0.181,0.157,0.179,0.302C496.848,144.984,496.851,145.532,496.852,146.079z"/>
		<path fill="#5D80A7" d="M507.891,167.305c0,2.263-1.815,4.126-4.007,4.113c-2.165-0.012-3.951-1.854-3.934-4.058
			c0.017-2.246,1.82-4.092,3.998-4.094C506.113,163.265,507.891,165.086,507.891,167.305z"/>
		<path fill="#1A1A1A" d="M509.802,170.675c0-0.036-0.006-0.074,0.001-0.109c0.032-0.17-0.104-0.416,0.072-0.5
			c0.236-0.113,0.525-0.103,0.779,0.001c0.169,0.07,0.311,0.26,0.181,0.401c-0.183,0.198-0.092,0.331-0.025,0.513
			c0.035,0.097,0.178,0.258-0.011,0.33c-0.188,0.071-0.25-0.087-0.274-0.241c-0.028-0.174-0.13-0.259-0.299-0.242
			c-0.193,0.02-0.106,0.182-0.122,0.286c-0.014,0.091,0.023,0.202-0.131,0.207c-0.156,0.005-0.173-0.09-0.17-0.212
			C509.805,170.965,509.802,170.82,509.802,170.675z M510.543,170.417c-0.008-0.165-0.135-0.183-0.256-0.199
			c-0.148-0.019-0.188,0.068-0.188,0.199c0,0.127,0.029,0.223,0.182,0.198C510.4,170.596,510.531,170.582,510.543,170.417z"/>
		<path fill="#5D80A7" d="M482.323,167.187c0.021,0.3-0.028,0.589-0.1,0.87c-0.195,0.761-0.715,1.193-1.409,1.186
			c-0.714-0.007-1.154-0.384-1.343-1.188c-0.138-0.587-0.133-1.183,0.021-1.766c0.192-0.726,0.75-1.146,1.429-1.109
			c0.732,0.041,1.203,0.482,1.335,1.253C482.298,166.685,482.347,166.936,482.323,167.187z"/>
		<path fill="#D5D5D5" d="M510.543,170.417c-0.013,0.165-0.143,0.179-0.262,0.199c-0.154,0.025-0.182-0.071-0.182-0.198
			c0-0.131,0.04-0.218,0.188-0.199C510.408,170.234,510.536,170.252,510.543,170.417z"/>
	</g>
</g>
</svg>
